PathFileType	4	(X/Y/Z)	c:/Users/goper/Files/vsCode/490R/osim_files/A01/A01_Fast_03.trc
DataRate	CameraRate	NumFrames	NumMarkers	Units                	OrigDataRate	OrigDataStartFrame	OrigNumFrames
120.00	120.00	4	36	mm	120.0	433	1154
                Frame#	Time	Mobility_markerset:LPSIS			Mobility_markerset:LASIS			Mobility_markerset:LTH1			Mobility_markerset:LTH2			Mobility_markerset:LTH3			Mobility_markerset:LTH4			Mobility_markerset:LLFE			Mobility_markerset:LMFE			Mobility_markerset:LSH1			Mobility_markerset:LSH2			Mobility_markerset:LSH3			Mobility_markerset:LSH4			Mobility_markerset:LLMAL			Mobility_markerset:LMMAL			Mobility_markerset:LCAL			Mobility_markerset:LMTP5			Mobility_markerset:LTOE			Mobility_markerset:LMTP1			Mobility_markerset:RPSIS			Mobility_markerset:RASIS			Mobility_markerset:RTH1			Mobility_markerset:RTH2			Mobility_markerset:RTH3			Mobility_markerset:RTH4			Mobility_markerset:RLFE			Mobility_markerset:RMFE			Mobility_markerset:RSH1			Mobility_markerset:RSH2			Mobility_markerset:RSH3			Mobility_markerset:RSH4			Mobility_markerset:RLMAL			Mobility_markerset:RMMAL			Mobility_markerset:RCAL			Mobility_markerset:RMTP1			Mobility_markerset:RTOE			Mobility_markerset:RMTP5		
		X1	Y1	Z1	X2	Y2	Z2	X3	Y3	Z3	X4	Y4	Z4	X5	Y5	Z5	X6	Y6	Z6	X7	Y7	Z7	X8	Y8	Z8	X9	Y9	Z9	X10	Y10	Z10	X11	Y11	Z11	X12	Y12	Z12	X13	Y13	Z13	X14	Y14	Z14	X15	Y15	Z15	X16	Y16	Z16	X17	Y17	Z17	X18	Y18	Z18	X19	Y19	Z19	X20	Y20	Z20	X21	Y21	Z21	X22	Y22	Z22	X23	Y23	Z23	X24	Y24	Z24	X25	Y25	Z25	X26	Y26	Z26	X27	Y27	Z27	X28	Y28	Z28	X29	Y29	Z29	X30	Y30	Z30	X31	Y31	Z31	X32	Y32	Z32	X33	Y33	Z33	X34	Y34	Z34	X35	Y35	Z35	X36	Y36	Z36

433	3.60000	-32.36958	1037.85706	316.55472	-254.50287	990.37524	448.42673	-71.49386	683.65424	483.68350	-70.40257	636.47101	474.67471	-131.91278	674.67957	486.80164	-122.38513	630.77924	474.02792	-82.12091	514.70984	439.82736	-94.23306	518.96539	301.36887	18.79455	379.73114	428.08615	38.06365	336.60257	429.59967	-35.61718	350.27499	424.10132	-8.82323	313.02609	424.89795	124.56132	105.46347	409.92807	139.52179	106.68009	320.69089	211.71509	92.31223	369.28046	-1.77324	33.45568	418.08600	-25.01648	53.18489	348.09146	0.00000	0.00000	0.00000	-45.83875	1024.40491	217.51015	-280.88620	959.80609	188.24158	-312.49487	673.58191	101.85801	-326.21692	632.64636	104.99889	-256.65173	645.92206	96.51226	-279.43518	610.17731	102.24699	-385.31479	511.44662	147.24637	-371.95477	518.88141	277.25549	-386.18817	300.55508	132.50169	-408.76819	261.78790	131.28268	-442.55789	325.51016	130.36143	-457.71356	283.81906	128.94844	-512.49377	108.40707	155.67517	-527.09521	136.50542	239.69524	-485.70856	54.81647	208.61325	-670.68726	153.14606	230.85953	-684.45935	186.86214	185.17290	-654.49091	129.66275	119.39139
434	3.60833	-46.16988	1035.84839	314.38477	-266.85059	987.33173	448.50064	-81.14471	681.66290	482.32220	-79.54570	634.46863	473.39578	-141.24615	672.01660	485.74707	-131.39662	628.14746	473.09113	-89.98051	512.46198	439.34473	-103.12592	515.43463	300.21951	12.89645	379.05695	427.46762	33.09672	336.18021	428.95892	-40.86288	348.62695	423.52744	-13.64409	311.88342	424.22055	123.58981	106.38806	409.95712	138.54398	107.59182	320.47714	210.84000	94.50325	369.00806	-1.90293	33.34800	418.12579	-25.18635	53.08920	348.09064	0.00000	0.00000	0.00000	-60.07181	1022.67419	215.26181	-294.91840	957.11865	188.71791	-326.72742	672.10657	100.67113	-341.23679	632.58295	105.09013	-271.25150	644.35394	95.92480	-293.60779	608.76044	102.69275	-399.87762	510.83124	146.37309	-383.20169	516.53577	277.56100	-402.09714	299.21597	132.10526	-424.80722	260.41696	130.96936	-458.48569	324.14203	130.01051	-473.78320	282.58734	128.85831	-528.66357	107.03604	156.34834	-542.76099	135.77502	240.30875	-501.95569	53.60683	209.46648	-686.13812	153.56076	232.01030	-700.09833	187.17430	186.09151	-671.79236	129.51736	119.73708
435	3.61667	-59.88515	1033.91626	312.60443	-279.22983	984.26038	448.52747	-91.32307	679.48547	481.04333	-89.07752	632.39832	472.17453	-151.14192	669.19110	484.89163	-140.68356	625.40887	471.76773	-98.80258	509.84631	438.16840	-111.70654	512.55792	299.45987	6.74326	378.42871	426.86038	27.62949	335.91632	428.46530	-46.49538	347.09390	422.99023	-18.73030	310.48212	423.60416	122.48927	107.54231	409.97531	137.21271	109.14378	320.09494	209.61398	96.93564	368.84897	-2.01380	33.20461	418.16675	-25.46289	52.99577	348.12405	0.00000	0.00000	0.00000	-74.18522	1020.89471	213.26384	-308.97037	954.72504	189.17856	-341.80408	672.24213	99.72437	-356.49063	632.40973	104.18441	-286.10883	643.41620	95.68285	-310.26242	607.29260	102.64262	-415.61218	510.94162	145.96579	-395.67279	514.72314	277.85336	-416.89160	297.92355	132.11159	-439.30161	258.96054	131.27928	-473.49332	322.41855	130.04486	-488.38507	280.78445	128.93654	-541.63452	104.92406	156.90855	-555.79315	133.78067	241.02827	-514.88263	51.54806	210.07384	-699.22437	150.88615	233.29979	-713.42078	184.33810	187.32663	-685.43085	127.01252	120.86871
436	3.62500	-74.18222	1031.43750	310.96530	-292.57297	981.52203	448.72083	-101.85100	677.25952	479.79791	-99.11214	630.16498	470.98923	-161.63171	666.37561	483.75449	-150.63174	622.65564	470.80438	-107.89909	507.27896	437.29227	-120.76637	509.57681	298.75604	0.14687	377.88815	426.23541	22.05610	335.95267	427.88806	-52.41266	345.55179	422.37726	-23.86338	309.71317	423.29135	121.16220	108.91305	409.99521	135.69713	110.75844	319.76468	208.07558	99.76891	368.76382	-2.18630	33.13862	418.16742	-25.80285	52.93504	348.12350	0.00000	0.00000	0.00000	-88.31240	1019.08063	211.57280	-323.26486	952.82770	189.33038	-356.92450	672.41626	98.51556	-371.88892	632.71112	102.96665	-302.00977	643.13788	95.07267	-325.96548	607.15765	102.16442	-432.20471	511.02448	146.33951	-409.92871	513.95038	278.06894	-430.39899	296.58289	132.62929	-452.06638	257.31375	131.73865	-487.00870	320.41837	130.08615	-501.58667	278.28714	129.26765	-552.20081	102.08334	157.53561	-566.58539	130.49594	241.83769	-524.86981	48.72649	210.46445	-710.02625	145.97710	234.71809	-724.89685	179.59982	189.01311	-696.83746	123.62947	122.01529
